<svg xmlns="http://www.w3.org/2000/svg" width="361" height="520" viewBox="0 0 361 520">
  <title>Asset 1</title>
  <g id="Layer_2" data-name="Layer 2">
    <g id="Layer_1-2" data-name="Layer 1">
      <path d="M0,10A10,10,0,0,1,10,0H351a10,10,0,0,1,10,10V520H349.57a7.5,7.5,0,1,0-14.15,0H324.57a7.5,7.5,0,1,0-14.15,0H299.57a7.5,7.5,0,1,0-14.15,0H274.57a7.5,7.5,0,1,0-14.15,0H249.57a7.5,7.5,0,1,0-14.15,0H224.57a7.5,7.5,0,1,0-14.15,0H199.57a7.5,7.5,0,1,0-14.15,0H174.57a7.5,7.5,0,1,0-14.15,0H149.57a7.5,7.5,0,1,0-14.15,0H124.57a7.5,7.5,0,1,0-14.15,0H99.57a7.5,7.5,0,1,0-14.15,0H74.57a7.5,7.5,0,1,0-14.15,0H49.57a7.5,7.5,0,1,0-14.15,0H24.57a7.5,7.5,0,1,0-14.15,0H0Z" style="fill: #fff;fill-rule: evenodd"/>
    </g>
  </g>
</svg>
